# xmcd
#
# Track frame offsets:
#	150
#	2239
#	22221
#	52685
#	53630
#	70862
#	75042
#	96970
#	118463
#	135011
#	158412
#	182632
#	187419
#	210093
#	229348
#	253670
#	282165
#	303934
#
# Disc length: 4371 seconds
#
# Revision: 0
# Processed by: cddbd v1.5.1PL0 Copyright (c) Steve Scherf et al.
# Submitted via: dBpowerAMP V4.0
#
DISCID=e5111112
DTITLE=Eminem - The Marshall Mathers LP
DYEAR=2000
DGENRE=Rap and Hip-Hop
TTITLE0=Public Service Announcement 2000
TTITLE1=Kill You
TTITLE2=Stan
TTITLE3=Paul (Skit)
TTITLE4=Who Knew
TTITLE5=Steve Berman (Skit)
TTITLE6=The Way I Am
TTITLE7=The Real Slim Shady
TTITLE8=Remember Me
TTITLE9=I'm Back
TTITLE10=Marshall Mathers
TTITLE11=Ken Kaniff (Skit)
TTITLE12=Drug Ballad
TTITLE13=Amityville
TTITLE14=Bitch Please II
TTITLE15=Kim
TTITLE16=Under The Influence
TTITLE17=Criminal
EXTD=Rap and Hip-Hop
EXTT0=
EXTT1=
EXTT2=
EXTT3=
EXTT4=
EXTT5=
EXTT6=
EXTT7=
EXTT8=
EXTT9=
EXTT10=
EXTT11=
EXTT12=
EXTT13=
EXTT14=
EXTT15=
EXTT16=
EXTT17=
PLAYORDER=
